<?xml version="1.0" encoding="UTF-8"?>
<svg xmlns="http://www.w3.org/2000/svg" xmlns:xlink="http://www.w3.org/1999/xlink" width="20px" height="20px" viewBox="0 0 20 20" version="1.1">
<g id="surface1">
<path style=" stroke:none;fill-rule:nonzero;fill:rgb(0%,0%,0%);fill-opacity:1;" d="M 9.984375 5.617188 C 9.953125 5.679688 9.871094 5.871094 9.804688 6.039062 C 9.5 6.808594 9.515625 6.785156 9.144531 6.964844 C 8.421875 7.316406 7.851562 8.089844 7.75 8.859375 L 7.726562 9.046875 L 7.378906 9.097656 C 7.003906 9.152344 6.8125 9.246094 6.726562 9.421875 C 6.664062 9.558594 6.699219 9.691406 6.832031 9.820312 C 6.953125 9.9375 7.246094 9.996094 7.6875 10 C 7.875 10 7.929688 10.011719 7.929688 10.058594 C 7.929688 10.097656 7.886719 10.117188 7.792969 10.117188 C 7.621094 10.117188 7.621094 10.136719 7.777344 10.597656 C 7.90625 10.984375 7.984375 11.136719 8.199219 11.402344 L 8.335938 11.574219 L 8.25 11.714844 C 7.84375 12.375 7.90625 12.546875 8.433594 12.203125 L 8.640625 12.0625 L 8.941406 12.199219 C 9.105469 12.273438 9.3125 12.355469 9.40625 12.378906 C 9.597656 12.433594 9.746094 12.609375 9.925781 12.996094 C 9.988281 13.132812 10.046875 13.242188 10.058594 13.242188 C 10.070312 13.242188 10.128906 13.132812 10.1875 12.996094 C 10.34375 12.65625 10.550781 12.445312 10.847656 12.328125 C 11.417969 12.101562 11.925781 11.625 12.207031 11.035156 C 12.355469 10.730469 12.5 10.296875 12.5 10.160156 C 12.5 10.136719 12.4375 10.117188 12.363281 10.117188 C 12.210938 10.117188 12.175781 10.050781 12.316406 10.023438 C 12.363281 10.011719 12.589844 9.996094 12.816406 9.988281 C 13.28125 9.96875 13.441406 9.910156 13.535156 9.722656 C 13.617188 9.570312 13.582031 9.417969 13.445312 9.289062 C 13.3125 9.164062 13.230469 9.136719 12.777344 9.085938 L 12.414062 9.042969 L 12.328125 8.75 C 12.21875 8.371094 12.039062 8.0625 11.75 7.753906 C 11.371094 7.347656 10.917969 7.113281 10.375 7.039062 L 10.117188 7.003906 L 10.117188 7.269531 C 10.117188 7.503906 10.125 7.535156 10.214844 7.59375 C 10.382812 7.703125 10.414062 7.824219 10.316406 7.980469 C 10.21875 8.136719 10.210938 8.238281 10.292969 8.34375 C 10.324219 8.382812 10.351562 8.464844 10.351562 8.523438 C 10.351562 8.613281 10.371094 8.632812 10.449219 8.632812 C 10.5 8.632812 10.566406 8.660156 10.59375 8.695312 C 10.621094 8.730469 10.707031 8.820312 10.785156 8.894531 C 10.863281 8.96875 10.9375 9.078125 10.953125 9.144531 L 10.976562 9.257812 L 11.757812 9.257812 L 11.757812 9.128906 C 11.757812 8.953125 11.660156 8.589844 11.542969 8.347656 C 11.417969 8.078125 11.109375 7.738281 10.808594 7.539062 C 10.542969 7.359375 10.628906 7.367188 10.996094 7.550781 C 11.523438 7.8125 11.933594 8.367188 12.035156 8.953125 C 12.0625 9.109375 12.089844 9.246094 12.09375 9.253906 C 12.101562 9.261719 12.273438 9.277344 12.476562 9.292969 C 12.835938 9.320312 12.933594 9.347656 12.878906 9.398438 C 12.792969 9.484375 8.25 9.507812 7.546875 9.425781 C 7.226562 9.390625 7.363281 9.324219 7.792969 9.304688 C 7.996094 9.292969 8.164062 9.277344 8.164062 9.261719 C 8.164062 9.246094 8.144531 9.214844 8.117188 9.1875 C 8.046875 9.117188 8.074219 8.746094 8.167969 8.46875 C 8.355469 7.90625 8.742188 7.453125 9.242188 7.203125 C 9.410156 7.117188 9.578125 7.007812 9.617188 6.953125 C 9.65625 6.898438 9.75 6.6875 9.824219 6.484375 L 9.964844 6.113281 L 9.945312 6.347656 C 9.933594 6.476562 9.914062 6.78125 9.898438 7.019531 C 9.875 7.441406 9.875 7.460938 9.949219 7.460938 C 10.023438 7.460938 10.027344 7.421875 10.054688 6.5 C 10.070312 5.96875 10.074219 5.527344 10.0625 5.519531 C 10.054688 5.507812 10.019531 5.550781 9.984375 5.617188 Z M 11.027344 8.128906 C 11.089844 8.230469 11.03125 8.320312 10.902344 8.320312 C 10.820312 8.320312 10.777344 8.296875 10.761719 8.242188 C 10.707031 8.074219 10.933594 7.980469 11.027344 8.128906 Z M 8.566406 9.832031 C 8.410156 9.839844 8.152344 9.839844 8 9.832031 C 7.84375 9.828125 7.96875 9.820312 8.28125 9.820312 C 8.59375 9.820312 8.71875 9.828125 8.566406 9.832031 Z M 12.160156 9.832031 C 12.003906 9.839844 11.746094 9.839844 11.59375 9.832031 C 11.4375 9.828125 11.5625 9.820312 11.875 9.820312 C 12.1875 9.820312 12.3125 9.828125 12.160156 9.832031 Z M 9.976562 10.125 C 10.058594 10.394531 10.1875 10.679688 10.214844 10.664062 C 10.238281 10.652344 10.253906 10.519531 10.253906 10.371094 L 10.253906 10.097656 L 10.503906 10.074219 L 10.449219 10.183594 C 10.398438 10.277344 10.398438 10.300781 10.453125 10.371094 C 10.484375 10.414062 10.539062 10.511719 10.570312 10.585938 C 10.628906 10.710938 10.628906 10.730469 10.550781 10.917969 C 10.449219 11.164062 10.449219 11.195312 10.566406 11.386719 C 10.753906 11.691406 10.675781 11.992188 10.332031 12.304688 L 10.226562 12.402344 L 10.304688 12.246094 C 10.421875 12.007812 10.445312 11.832031 10.378906 11.667969 C 10.316406 11.523438 10.097656 11.339844 9.878906 11.25 C 9.761719 11.199219 9.75 11.203125 9.667969 11.304688 L 9.578125 11.414062 L 9.375 11.304688 C 8.984375 11.09375 8.691406 10.667969 8.621094 10.222656 L 8.597656 10.078125 L 9.28125 10.078125 C 9.792969 10.078125 9.96875 10.089844 9.976562 10.125 Z M 12.128906 10.542969 C 12.113281 10.609375 12.089844 10.671875 12.070312 10.683594 C 12.054688 10.695312 12.058594 10.632812 12.078125 10.546875 C 12.125 10.363281 12.167969 10.363281 12.128906 10.542969 Z M 11.4375 10.503906 C 11.519531 10.554688 11.476562 10.683594 11.375 10.695312 C 11.28125 10.710938 11.226562 10.625 11.265625 10.527344 C 11.289062 10.460938 11.359375 10.453125 11.4375 10.503906 Z M 11.734375 11.21875 C 11.570312 11.492188 11.050781 11.941406 10.820312 12.011719 C 10.765625 12.027344 10.855469 11.953125 11.019531 11.847656 C 11.179688 11.738281 11.410156 11.542969 11.523438 11.410156 C 11.730469 11.179688 11.792969 11.121094 11.734375 11.21875 Z M 8.707031 11.578125 C 8.742188 11.621094 8.699219 11.679688 8.492188 11.871094 C 8.347656 12.003906 8.222656 12.101562 8.210938 12.089844 C 8.199219 12.078125 8.28125 11.964844 8.390625 11.839844 C 8.503906 11.710938 8.59375 11.589844 8.59375 11.566406 C 8.59375 11.507812 8.652344 11.511719 8.707031 11.578125 Z M 9.28125 12.023438 C 9.261719 12.039062 8.867188 11.84375 8.867188 11.816406 C 8.867188 11.804688 8.964844 11.84375 9.082031 11.902344 C 9.199219 11.960938 9.289062 12.015625 9.28125 12.023438 Z M 9.28125 12.023438 "/>
<path style=" stroke:none;fill-rule:nonzero;fill:rgb(0%,0%,0%);fill-opacity:1;" d="M 8.652344 6.589844 C 8.363281 6.707031 8.035156 6.972656 7.886719 7.214844 C 7.734375 7.460938 7.855469 7.429688 8.117188 7.15625 C 8.308594 6.957031 8.453125 6.851562 8.660156 6.753906 C 9.046875 6.570312 9.039062 6.433594 8.652344 6.589844 Z M 8.652344 6.589844 "/>
<path style=" stroke:none;fill-rule:nonzero;fill:rgb(0%,0%,0%);fill-opacity:1;" d="M 11.453125 6.820312 C 11.347656 6.894531 11.339844 7.070312 11.4375 7.160156 C 11.519531 7.234375 11.699219 7.25 11.742188 7.183594 C 11.777344 7.125 11.957031 7.304688 12.175781 7.609375 C 12.273438 7.746094 12.363281 7.847656 12.375 7.835938 C 12.417969 7.789062 12.140625 7.304688 11.992188 7.171875 C 11.90625 7.09375 11.835938 7.011719 11.835938 6.992188 C 11.835938 6.933594 11.652344 6.757812 11.59375 6.757812 C 11.5625 6.757812 11.5 6.785156 11.453125 6.820312 Z M 11.453125 6.820312 "/>
<path style=" stroke:none;fill-rule:nonzero;fill:rgb(0%,0%,0%);fill-opacity:1;" d="M 7.617188 7.65625 C 7.617188 7.675781 7.644531 7.695312 7.675781 7.695312 C 7.707031 7.695312 7.734375 7.675781 7.734375 7.65625 C 7.734375 7.632812 7.707031 7.617188 7.675781 7.617188 C 7.644531 7.617188 7.617188 7.632812 7.617188 7.65625 Z M 7.617188 7.65625 "/>
<path style=" stroke:none;fill-rule:nonzero;fill:rgb(0%,0%,0%);fill-opacity:1;" d="M 8.578125 8.015625 C 8.453125 8.195312 8.554688 8.398438 8.769531 8.398438 C 8.992188 8.398438 9.101562 8.164062 8.945312 8.007812 C 8.839844 7.902344 8.652344 7.90625 8.578125 8.015625 Z M 8.578125 8.015625 "/>
<path style=" stroke:none;fill-rule:nonzero;fill:rgb(0%,0%,0%);fill-opacity:1;" d="M 12.515625 8.257812 C 12.484375 8.34375 12.527344 8.386719 12.585938 8.328125 C 12.621094 8.292969 12.621094 8.269531 12.585938 8.234375 C 12.550781 8.199219 12.535156 8.207031 12.515625 8.257812 Z M 12.515625 8.257812 "/>
<path style=" stroke:none;fill-rule:nonzero;fill:rgb(0%,0%,0%);fill-opacity:1;" d="M 12.007812 12.128906 C 11.976562 12.203125 12.019531 12.265625 12.109375 12.265625 C 12.183594 12.265625 12.226562 12.199219 12.199219 12.117188 C 12.175781 12.050781 12.035156 12.058594 12.007812 12.128906 Z M 12.007812 12.128906 "/>
<path style=" stroke:none;fill-rule:nonzero;fill:rgb(0%,0%,0%);fill-opacity:1;" d="M 7.792969 13.121094 C 7.78125 13.140625 7.835938 13.179688 7.910156 13.203125 C 8.003906 13.234375 8.101562 13.316406 8.207031 13.457031 C 8.292969 13.570312 8.390625 13.675781 8.421875 13.6875 C 8.535156 13.730469 8.703125 13.710938 8.871094 13.636719 L 9.039062 13.558594 L 9.167969 13.675781 C 9.242188 13.738281 9.332031 13.789062 9.375 13.789062 C 9.492188 13.789062 9.703125 14 9.839844 14.257812 C 9.910156 14.390625 9.988281 14.488281 10.011719 14.480469 C 10.039062 14.472656 10.09375 14.410156 10.136719 14.339844 C 10.425781 13.875 10.449219 13.847656 10.667969 13.777344 C 10.785156 13.738281 10.90625 13.679688 10.941406 13.648438 C 11.019531 13.578125 11.136719 13.578125 11.234375 13.652344 C 11.273438 13.683594 11.367188 13.710938 11.4375 13.710938 C 11.570312 13.710938 11.660156 13.640625 11.867188 13.363281 C 11.921875 13.292969 12.019531 13.226562 12.113281 13.199219 C 12.308594 13.140625 12.242188 13.085938 11.972656 13.085938 C 11.839844 13.085938 11.734375 13.113281 11.640625 13.171875 C 11.566406 13.21875 11.476562 13.261719 11.445312 13.265625 C 11.414062 13.273438 11.328125 13.289062 11.261719 13.304688 C 11.179688 13.320312 11.074219 13.304688 10.976562 13.265625 C 10.75 13.175781 10.695312 13.183594 10.484375 13.359375 L 10.296875 13.515625 L 10.214844 13.4375 C 10.101562 13.332031 9.976562 13.339844 9.863281 13.460938 C 9.777344 13.554688 9.757812 13.558594 9.691406 13.511719 C 9.207031 13.15625 9.230469 13.164062 8.878906 13.324219 C 8.679688 13.414062 8.640625 13.417969 8.511719 13.328125 C 8.179688 13.105469 8.136719 13.085938 7.980469 13.085938 C 7.890625 13.085938 7.808594 13.101562 7.792969 13.121094 Z M 7.792969 13.121094 "/>
<path style=" stroke:none;fill-rule:nonzero;fill:rgb(0%,0%,0%);fill-opacity:1;" d="M 8.554688 13.28125 C 8.585938 13.300781 8.65625 13.320312 8.707031 13.320312 C 8.832031 13.320312 8.800781 13.296875 8.632812 13.265625 C 8.535156 13.25 8.511719 13.253906 8.554688 13.28125 Z M 8.554688 13.28125 "/>
</g>
</svg>
