<?xml version="1.0" encoding="UTF-8"?>
<svg xmlns="http://www.w3.org/2000/svg" xmlns:xlink="http://www.w3.org/1999/xlink" width="50px" height="50px" viewBox="0 0 50 50" version="1.1">
<g id="surface1">
<path style=" stroke:none;fill-rule:nonzero;fill:rgb(97.647059%,72.941178%,28.235295%);fill-opacity:1;" d="M 27.484375 33.839844 C 27.484375 27.59375 22.417969 22.527344 16.171875 22.527344 C 9.921875 22.527344 4.859375 27.59375 4.859375 33.839844 C 4.859375 40.085938 9.921875 45.152344 16.171875 45.152344 C 22.417969 45.152344 27.484375 40.085938 27.484375 33.839844 Z M 27.484375 33.839844 "/>
<path style=" stroke:none;fill-rule:nonzero;fill:rgb(20%,20%,20%);fill-opacity:1;" d="M 48.730469 8.21875 L 40.128906 16.820312 L 49.984375 1.140625 L 48.796875 0.078125 L 43.273438 4.496094 L 45.15625 1.101562 L 44.066406 0 L 8.515625 19.390625 C 3.347656 22.175781 0.0117188 27.847656 0.0117188 33.839844 C 0.0117188 42.75 7.257812 50 16.171875 50 C 21.796875 50 26.921875 47.136719 29.890625 42.339844 L 49.988281 9.210938 Z M 28.515625 41.496094 C 25.847656 45.808594 21.230469 48.382812 16.171875 48.382812 C 8.152344 48.382812 1.625 41.859375 1.625 33.839844 C 1.625 28.433594 4.632812 23.320312 9.285156 20.8125 L 42.390625 2.753906 L 39.945312 7.160156 L 28.59375 16.238281 L 29.605469 17.503906 L 41.054688 8.339844 L 41.117188 8.375 L 41.203125 8.222656 L 46.070312 4.328125 L 30.839844 28.5625 L 32.207031 29.421875 L 36.261719 22.972656 L 45.132812 14.097656 Z M 28.515625 41.496094 "/>
<path style=" stroke:none;fill-rule:nonzero;fill:rgb(20%,20%,20%);fill-opacity:1;" d="M 22.21875 16.992188 L 26.257812 14.566406 L 27.089844 15.953125 L 23.050781 18.378906 Z M 22.21875 16.992188 "/>
<path style=" stroke:none;fill-rule:nonzero;fill:rgb(20%,20%,20%);fill-opacity:1;" d="M 9.707031 33.839844 L 8.089844 33.839844 C 8.089844 38.296875 11.714844 41.917969 16.171875 41.917969 L 16.171875 40.304688 C 12.605469 40.304688 9.707031 37.402344 9.707031 33.839844 Z M 9.707031 33.839844 "/>
</g>
</svg>
